<svg width="75" height="23" viewBox="0 0 75 23" fill="none" xmlns="http://www.w3.org/2000/svg">
<path d="M4.57715 0.671875V22H0.197266V0.671875H4.57715ZM12.6484 9.43164V22H8.41504V6.15039H12.3848L12.6484 9.43164ZM12.0625 13.5186H10.8906C10.8906 12.415 11.0225 11.3994 11.2861 10.4717C11.5596 9.53418 11.9551 8.72363 12.4727 8.04004C13 7.34668 13.6494 6.80957 14.4209 6.42871C15.1924 6.04785 16.0859 5.85742 17.1016 5.85742C17.8047 5.85742 18.4492 5.96484 19.0352 6.17969C19.6211 6.38477 20.124 6.71191 20.5439 7.16113C20.9736 7.60059 21.3057 8.17676 21.54 8.88965C21.7744 9.59277 21.8916 10.4375 21.8916 11.4238V22H17.6729V11.8926C17.6729 11.1699 17.5752 10.6133 17.3799 10.2227C17.1846 9.83203 16.9062 9.55859 16.5449 9.40234C16.1934 9.24609 15.7686 9.16797 15.2705 9.16797C14.7236 9.16797 14.2451 9.28027 13.835 9.50488C13.4346 9.72949 13.1025 10.042 12.8389 10.4424C12.5752 10.833 12.3799 11.292 12.2529 11.8193C12.126 12.3467 12.0625 12.9131 12.0625 13.5186ZM21.4961 13.0352L19.9873 13.2256C19.9873 12.1904 20.1143 11.2285 20.3682 10.3398C20.6318 9.45117 21.0176 8.66992 21.5254 7.99609C22.043 7.32227 22.6826 6.7998 23.4443 6.42871C24.2061 6.04785 25.085 5.85742 26.0811 5.85742C26.8428 5.85742 27.5361 5.96973 28.1611 6.19434C28.7861 6.40918 29.3184 6.75586 29.7578 7.23438C30.207 7.70312 30.5488 8.31836 30.7832 9.08008C31.0273 9.8418 31.1494 10.7744 31.1494 11.8779V22H26.916V11.8779C26.916 11.1455 26.8184 10.5889 26.623 10.208C26.4375 9.81738 26.1641 9.54883 25.8027 9.40234C25.4512 9.24609 25.0312 9.16797 24.543 9.16797C24.0352 9.16797 23.5908 9.27051 23.21 9.47559C22.8291 9.6709 22.5117 9.94434 22.2578 10.2959C22.0039 10.6475 21.8135 11.0576 21.6865 11.5264C21.5596 11.9854 21.4961 12.4883 21.4961 13.0352ZM38.6348 9.60742V22H34.416V6.15039H38.3857L38.6348 9.60742ZM43.4102 6.04785L43.3369 9.95898C43.1318 9.92969 42.8828 9.90527 42.5898 9.88574C42.3066 9.85645 42.0479 9.8418 41.8135 9.8418C41.2178 9.8418 40.7002 9.91992 40.2607 10.0762C39.8311 10.2227 39.4697 10.4424 39.1768 10.7354C38.8936 11.0283 38.6787 11.3848 38.5322 11.8047C38.3955 12.2246 38.3174 12.7031 38.2979 13.2402L37.4482 12.9766C37.4482 11.9512 37.5508 11.0088 37.7559 10.1494C37.9609 9.28027 38.2588 8.52344 38.6494 7.87891C39.0498 7.23438 39.5381 6.73633 40.1143 6.38477C40.6904 6.0332 41.3496 5.85742 42.0918 5.85742C42.3262 5.85742 42.5654 5.87695 42.8096 5.91602C43.0537 5.94531 43.2539 5.98926 43.4102 6.04785ZM53.459 18.4258V11.3652C53.459 10.8574 53.376 10.4229 53.21 10.0615C53.0439 9.69043 52.7852 9.40234 52.4336 9.19727C52.0918 8.99219 51.6475 8.88965 51.1006 8.88965C50.6318 8.88965 50.2266 8.97266 49.8848 9.13867C49.543 9.29492 49.2793 9.52441 49.0938 9.82715C48.9082 10.1201 48.8154 10.4668 48.8154 10.8672H44.5967C44.5967 10.1934 44.7529 9.55371 45.0654 8.94824C45.3779 8.34277 45.832 7.81055 46.4277 7.35156C47.0234 6.88281 47.7314 6.5166 48.5518 6.25293C49.3818 5.98926 50.3096 5.85742 51.335 5.85742C52.5654 5.85742 53.6592 6.0625 54.6162 6.47266C55.5732 6.88281 56.3252 7.49805 56.8721 8.31836C57.4287 9.13867 57.707 10.1641 57.707 11.3945V18.1768C57.707 19.0459 57.7607 19.7588 57.8682 20.3154C57.9756 20.8623 58.1318 21.3408 58.3369 21.751V22H54.0742C53.8691 21.5703 53.7129 21.0332 53.6055 20.3887C53.5078 19.7344 53.459 19.0801 53.459 18.4258ZM54.0156 12.3467L54.0449 14.7344H51.6865C51.1299 14.7344 50.6465 14.7979 50.2363 14.9248C49.8262 15.0518 49.4893 15.2324 49.2256 15.4668C48.9619 15.6914 48.7666 15.9551 48.6396 16.2578C48.5225 16.5605 48.4639 16.8926 48.4639 17.2539C48.4639 17.6152 48.5469 17.9424 48.7129 18.2354C48.8789 18.5186 49.1182 18.7432 49.4307 18.9092C49.7432 19.0654 50.1094 19.1436 50.5293 19.1436C51.1641 19.1436 51.7158 19.0166 52.1846 18.7627C52.6533 18.5088 53.0146 18.1963 53.2686 17.8252C53.5322 17.4541 53.6689 17.1025 53.6787 16.7705L54.792 18.5576C54.6357 18.958 54.4209 19.373 54.1475 19.8027C53.8838 20.2324 53.5469 20.6377 53.1367 21.0186C52.7266 21.3896 52.2334 21.6973 51.6572 21.9414C51.0811 22.1758 50.3975 22.293 49.6064 22.293C48.6006 22.293 47.6875 22.0928 46.8672 21.6924C46.0566 21.2822 45.4121 20.7207 44.9336 20.0078C44.4648 19.2852 44.2305 18.4648 44.2305 17.5469C44.2305 16.7168 44.3867 15.9795 44.6992 15.335C45.0117 14.6904 45.4707 14.1484 46.0762 13.709C46.6914 13.2598 47.458 12.9229 48.376 12.6982C49.2939 12.4639 50.3584 12.3467 51.5693 12.3467H54.0156ZM65.0898 9.53418V22H60.8711V6.15039H64.8262L65.0898 9.53418ZM64.4746 13.5186H63.332C63.332 12.3467 63.4834 11.292 63.7861 10.3545C64.0889 9.40723 64.5137 8.60156 65.0605 7.9375C65.6074 7.26367 66.2568 6.75098 67.0088 6.39941C67.7705 6.03809 68.6201 5.85742 69.5576 5.85742C70.2998 5.85742 70.9785 5.96484 71.5938 6.17969C72.209 6.39453 72.7363 6.73633 73.1758 7.20508C73.625 7.67383 73.9668 8.29395 74.2012 9.06543C74.4453 9.83691 74.5674 10.7793 74.5674 11.8926V22H70.3193V11.8779C70.3193 11.1748 70.2217 10.6279 70.0264 10.2373C69.8311 9.84668 69.543 9.57324 69.1621 9.41699C68.791 9.25098 68.332 9.16797 67.7852 9.16797C67.2188 9.16797 66.7256 9.28027 66.3057 9.50488C65.8955 9.72949 65.5537 10.042 65.2803 10.4424C65.0166 10.833 64.8164 11.292 64.6797 11.8193C64.543 12.3467 64.4746 12.9131 64.4746 13.5186Z" fill="#023E8A"/>
</svg>
