<svg width="124" height="37" viewBox="0 0 124 37" fill="none" xmlns="http://www.w3.org/2000/svg">
<path d="M0.368 0.719999H5.744V36H0.368V0.719999ZM13.5174 13.968H18.7014V17.952C19.4054 16.448 20.4294 15.312 21.7734 14.544C23.1494 13.776 24.7174 13.392 26.4774 13.392C30.4134 13.424 32.8294 14.784 33.7254 17.472C34.4294 16.224 35.4854 15.232 36.8934 14.496C38.3014 13.76 39.7894 13.392 41.3574 13.392C43.6614 13.392 45.4054 13.84 46.5894 14.736C47.7734 15.6 48.5574 16.848 48.9414 18.48C49.3574 20.08 49.5654 22.24 49.5654 24.96V36H44.3334V24.912C44.3334 22.32 44.0614 20.464 43.5174 19.344C43.0054 18.224 41.9974 17.664 40.4934 17.664C38.4774 17.664 36.9414 18.352 35.8854 19.728C34.8614 21.072 34.3494 22.848 34.3494 25.056V36H29.1654V24.144C29.1654 22.448 29.1014 21.184 28.9734 20.352C28.8454 19.52 28.4934 18.864 27.9174 18.384C27.3414 17.904 26.4134 17.664 25.1334 17.664C24.0134 17.664 22.9574 18 21.9654 18.672C21.0054 19.344 20.2214 20.256 19.6134 21.408C19.0374 22.528 18.7494 23.744 18.7494 25.056V36H13.5174V13.968ZM56.0296 13.968H61.2136V18.288C61.7256 16.816 62.5576 15.632 63.7096 14.736C64.8616 13.84 66.1736 13.392 67.6456 13.392C68.6696 13.392 69.3736 13.488 69.7576 13.68L69.0376 18.912C68.7496 18.72 68.1256 18.624 67.1656 18.624C65.6616 18.624 64.2856 19.104 63.0376 20.064C61.8216 21.024 61.2136 22.56 61.2136 24.672V36H56.0296V13.968ZM83.1676 36.48C81.1836 36.48 79.3436 36.016 77.6476 35.088C75.9836 34.128 74.6396 32.784 73.6156 31.056C72.6236 29.296 72.1276 27.248 72.1276 24.912C72.1276 22.608 72.5596 20.592 73.4236 18.864C74.3196 17.136 75.5836 15.792 77.2156 14.832C78.8476 13.872 80.7676 13.392 82.9756 13.392C84.2556 13.392 85.4556 13.616 86.5756 14.064C87.6956 14.512 88.6396 15.072 89.4076 15.744C90.1756 16.384 90.6876 17.024 90.9436 17.664L91.0396 13.968H95.9836V36H91.0876L90.9916 32.112C90.4476 33.264 89.4556 34.288 88.0156 35.184C86.5756 36.048 84.9596 36.48 83.1676 36.48ZM84.0316 32.16C85.8556 32.16 87.3916 31.536 88.6396 30.288C89.8876 29.008 90.5116 27.344 90.5116 25.296V24.96C90.5116 23.584 90.2236 22.352 89.6476 21.264C89.0716 20.176 88.2876 19.328 87.2956 18.72C86.3036 18.112 85.2156 17.808 84.0316 17.808C81.9836 17.808 80.3996 18.48 79.2796 19.824C78.1596 21.136 77.5996 22.848 77.5996 24.96C77.5996 27.104 78.1436 28.848 79.2316 30.192C80.3516 31.504 81.9516 32.16 84.0316 32.16ZM102.955 13.968H108.043L108.091 18C108.699 16.656 109.659 15.552 110.971 14.688C112.283 13.824 113.819 13.392 115.579 13.392C117.851 13.392 119.595 13.872 120.811 14.832C122.027 15.76 122.843 17.072 123.259 18.768C123.675 20.464 123.883 22.672 123.883 25.392V36H118.699V25.536C118.699 22.752 118.427 20.752 117.883 19.536C117.339 18.288 116.219 17.664 114.523 17.664C113.563 17.664 112.587 17.968 111.595 18.576C110.603 19.152 109.771 20 109.099 21.12C108.459 22.24 108.139 23.552 108.139 25.056V36H102.955V13.968Z" fill="#495057"/>
</svg>
