<svg width="168" height="41" viewBox="0 0 168 41" fill="none" xmlns="http://www.w3.org/2000/svg">
<path d="M31.1335 27.1333H36.5085L18.5919 12.1333L0.675217 27.1333H6.05022L18.5919 16.6167L31.1335 27.1333ZM9.63355 15.15V12.1333H4.25855V19.6333L9.63355 15.15Z" fill="white"/>
<path d="M26.3115 32.0302C26.7794 31.4406 27.0452 30.7314 27.0452 29.9795C27.0452 27.8434 24.9183 26.1345 22.2597 26.1345C19.6011 26.1345 17.4742 27.8434 17.4742 29.9795C17.4742 32.1156 19.6011 33.8245 22.2597 33.8245C23.1849 33.8245 24.0569 33.6109 24.7907 33.2435L28.1087 35.8667L29.5869 34.679L26.3115 32.0302ZM22.2597 32.1156C21.5546 32.1156 20.8784 31.8906 20.3798 31.49C19.8812 31.0894 19.6011 30.5461 19.6011 29.9795C19.6011 29.413 19.8812 28.8697 20.3798 28.4691C20.8784 28.0685 21.5546 27.8434 22.2597 27.8434C22.9648 27.8434 23.6411 28.0685 24.1397 28.4691C24.6382 28.8697 24.9183 29.413 24.9183 29.9795C24.9183 30.5461 24.6382 31.0894 24.1397 31.49C23.6411 31.8906 22.9648 32.1156 22.2597 32.1156ZM11.0935 32.9701V26.1345H7.90314L18.5376 18.4445L29.1721 26.1345H27.2367C25.9818 25.0835 24.2165 24.4256 22.2597 24.4256C18.4526 24.4256 15.3473 26.9206 15.3473 29.9795C15.3473 31.0818 15.7514 32.1156 16.4426 32.9701H11.0935Z" fill="white"/>
<path d="M62.37 19.23H65.73V33H62.37V19.23ZM64.02 16.65C63.4 16.65 62.88 16.44 62.46 16.02C62.04 15.6 61.83 15.08 61.83 14.46C61.83 13.9 62.04 13.42 62.46 13.02C62.88 12.62 63.4 12.42 64.02 12.42C64.62 12.42 65.13 12.62 65.55 13.02C65.97 13.42 66.18 13.9 66.18 14.46C66.18 15.08 65.97 15.6 65.55 16.02C65.15 16.44 64.64 16.65 64.02 16.65ZM70.2159 19.23H73.4559V21.72C73.8959 20.78 74.5359 20.07 75.3759 19.59C76.2359 19.11 77.2159 18.87 78.3159 18.87C80.7759 18.89 82.2859 19.74 82.8459 21.42C83.2859 20.64 83.9459 20.02 84.8259 19.56C85.7059 19.1 86.6359 18.87 87.6159 18.87C89.0559 18.87 90.1459 19.15 90.8859 19.71C91.6259 20.25 92.1159 21.03 92.3559 22.05C92.6159 23.05 92.7459 24.4 92.7459 26.1V33H89.4759V26.07C89.4759 24.45 89.3059 23.29 88.9659 22.59C88.6459 21.89 88.0159 21.54 87.0759 21.54C85.8159 21.54 84.8559 21.97 84.1959 22.83C83.5559 23.67 83.2359 24.78 83.2359 26.16V33H79.9959V25.59C79.9959 24.53 79.9559 23.74 79.8759 23.22C79.7959 22.7 79.5759 22.29 79.2159 21.99C78.8559 21.69 78.2759 21.54 77.4759 21.54C76.7759 21.54 76.1159 21.75 75.4959 22.17C74.8959 22.59 74.4059 23.16 74.0259 23.88C73.6659 24.58 73.4859 25.34 73.4859 26.16V33H70.2159V19.23ZM96.7861 19.23H100.026V21.93C100.346 21.01 100.866 20.27 101.586 19.71C102.306 19.15 103.126 18.87 104.046 18.87C104.686 18.87 105.126 18.93 105.366 19.05L104.916 22.32C104.736 22.2 104.346 22.14 103.746 22.14C102.806 22.14 101.946 22.44 101.166 23.04C100.406 23.64 100.026 24.6 100.026 25.92V33H96.7861V19.23ZM113.747 33.3C112.507 33.3 111.357 33.01 110.297 32.43C109.257 31.83 108.417 30.99 107.777 29.91C107.157 28.81 106.847 27.53 106.847 26.07C106.847 24.63 107.117 23.37 107.657 22.29C108.217 21.21 109.007 20.37 110.027 19.77C111.047 19.17 112.247 18.87 113.627 18.87C114.427 18.87 115.177 19.01 115.877 19.29C116.577 19.57 117.167 19.92 117.647 20.34C118.127 20.74 118.447 21.14 118.607 21.54L118.667 19.23H121.757V33H118.697L118.637 30.57C118.297 31.29 117.677 31.93 116.777 32.49C115.877 33.03 114.867 33.3 113.747 33.3ZM114.287 30.6C115.427 30.6 116.387 30.21 117.167 29.43C117.947 28.63 118.337 27.59 118.337 26.31V26.1C118.337 25.24 118.157 24.47 117.797 23.79C117.437 23.11 116.947 22.58 116.327 22.2C115.707 21.82 115.027 21.63 114.287 21.63C113.007 21.63 112.017 22.05 111.317 22.89C110.617 23.71 110.267 24.78 110.267 26.1C110.267 27.44 110.607 28.53 111.287 29.37C111.987 30.19 112.987 30.6 114.287 30.6ZM126.114 19.23H129.294L129.324 21.75C129.704 20.91 130.304 20.22 131.124 19.68C131.944 19.14 132.904 18.87 134.004 18.87C135.424 18.87 136.514 19.17 137.274 19.77C138.034 20.35 138.544 21.17 138.804 22.23C139.064 23.29 139.194 24.67 139.194 26.37V33H135.954V26.46C135.954 24.72 135.784 23.47 135.444 22.71C135.104 21.93 134.404 21.54 133.344 21.54C132.744 21.54 132.134 21.73 131.514 22.11C130.894 22.47 130.374 23 129.954 23.7C129.554 24.4 129.354 25.22 129.354 26.16V33H126.114V19.23Z" fill="white"/>
<path d="M48 12V39.2947" stroke="white" stroke-width="3"/>
</svg>
