<svg width="171" height="47" viewBox="0 0 171 47" fill="none" xmlns="http://www.w3.org/2000/svg">
<path d="M38.1025 30.275H44.1025L24.1025 13.4L4.10254 30.275H10.1025L24.1025 18.4438L38.1025 30.275ZM14.1025 16.7938V13.4H8.10254V21.8375L14.1025 16.7938Z" fill="#023E8A"/>
<path d="M32.7197 35.784C33.2421 35.1207 33.5388 34.3229 33.5388 33.4769C33.5388 31.0738 31.1646 29.1513 28.1968 29.1513C25.2291 29.1513 22.8549 31.0738 22.8549 33.4769C22.8549 35.8801 25.2291 37.8026 28.1968 37.8026C29.2296 37.8026 30.2031 37.5623 31.0222 37.1489L34.7259 40.1L36.376 38.7639L32.7197 35.784ZM28.1968 35.8801C27.4097 35.8801 26.6549 35.6269 26.0983 35.1762C25.5418 34.7255 25.2291 34.1143 25.2291 33.4769C25.2291 32.8396 25.5418 32.2283 26.0983 31.7777C26.6549 31.327 27.4097 31.0738 28.1968 31.0738C28.9839 31.0738 29.7388 31.327 30.2954 31.7777C30.8519 32.2283 31.1646 32.8396 31.1646 33.4769C31.1646 34.1143 30.8519 34.7255 30.2954 35.1762C29.7388 35.6269 28.9839 35.8801 28.1968 35.8801ZM15.7322 36.8413V29.1513H12.1709L24.042 20.5L35.913 29.1513H33.7525C32.3517 27.969 30.3811 27.2288 28.1968 27.2288C23.947 27.2288 20.4807 30.0357 20.4807 33.4769C20.4807 34.717 20.9318 35.8801 21.7034 36.8413H15.7322Z" fill="#023E8A"/>
<path d="M65.528 20.312H69.112V35H65.528V20.312ZM67.288 17.56C66.6267 17.56 66.072 17.336 65.624 16.888C65.176 16.44 64.952 15.8853 64.952 15.224C64.952 14.6267 65.176 14.1147 65.624 13.688C66.072 13.2613 66.6267 13.048 67.288 13.048C67.928 13.048 68.472 13.2613 68.92 13.688C69.368 14.1147 69.592 14.6267 69.592 15.224C69.592 15.8853 69.368 16.44 68.92 16.888C68.4933 17.336 67.9493 17.56 67.288 17.56ZM73.897 20.312H77.353V22.968C77.8223 21.9653 78.505 21.208 79.401 20.696C80.3183 20.184 81.3637 19.928 82.537 19.928C85.161 19.9493 86.7717 20.856 87.369 22.648C87.8383 21.816 88.5423 21.1547 89.481 20.664C90.4197 20.1733 91.4117 19.928 92.457 19.928C93.993 19.928 95.1557 20.2267 95.945 20.824C96.7343 21.4 97.257 22.232 97.513 23.32C97.7903 24.3867 97.929 25.8267 97.929 27.64V35H94.441V27.608C94.441 25.88 94.2597 24.6427 93.897 23.896C93.5557 23.1493 92.8837 22.776 91.881 22.776C90.537 22.776 89.513 23.2347 88.809 24.152C88.1263 25.048 87.785 26.232 87.785 27.704V35H84.329V27.096C84.329 25.9653 84.2863 25.1227 84.201 24.568C84.1157 24.0133 83.881 23.576 83.497 23.256C83.113 22.936 82.4943 22.776 81.641 22.776C80.8943 22.776 80.1903 23 79.529 23.448C78.889 23.896 78.3663 24.504 77.961 25.272C77.577 26.0187 77.385 26.8293 77.385 27.704V35H73.897V20.312ZM102.239 20.312H105.695V23.192C106.036 22.2107 106.591 21.4213 107.359 20.824C108.127 20.2267 109.001 19.928 109.983 19.928C110.665 19.928 111.135 19.992 111.391 20.12L110.911 23.608C110.719 23.48 110.303 23.416 109.663 23.416C108.66 23.416 107.743 23.736 106.911 24.376C106.1 25.016 105.695 26.04 105.695 27.448V35H102.239V20.312ZM120.331 35.32C119.008 35.32 117.781 35.0107 116.651 34.392C115.541 33.752 114.645 32.856 113.963 31.704C113.301 30.5307 112.971 29.1653 112.971 27.608C112.971 26.072 113.259 24.728 113.835 23.576C114.432 22.424 115.275 21.528 116.363 20.888C117.451 20.248 118.731 19.928 120.203 19.928C121.056 19.928 121.856 20.0773 122.603 20.376C123.349 20.6747 123.979 21.048 124.491 21.496C125.003 21.9227 125.344 22.3493 125.515 22.776L125.579 20.312H128.875V35H125.611L125.547 32.408C125.184 33.176 124.523 33.8587 123.563 34.456C122.603 35.032 121.525 35.32 120.331 35.32ZM120.907 32.44C122.123 32.44 123.147 32.024 123.979 31.192C124.811 30.3387 125.227 29.2293 125.227 27.864V27.64C125.227 26.7227 125.035 25.9013 124.651 25.176C124.267 24.4507 123.744 23.8853 123.083 23.48C122.421 23.0747 121.696 22.872 120.907 22.872C119.541 22.872 118.485 23.32 117.739 24.216C116.992 25.0907 116.619 26.232 116.619 27.64C116.619 29.0693 116.981 30.232 117.707 31.128C118.453 32.0027 119.52 32.44 120.907 32.44ZM133.522 20.312H136.914L136.946 23C137.351 22.104 137.991 21.368 138.866 20.792C139.741 20.216 140.765 19.928 141.938 19.928C143.453 19.928 144.615 20.248 145.426 20.888C146.237 21.5067 146.781 22.3813 147.058 23.512C147.335 24.6427 147.474 26.1147 147.474 27.928V35H144.018V28.024C144.018 26.168 143.837 24.8347 143.474 24.024C143.111 23.192 142.365 22.776 141.234 22.776C140.594 22.776 139.943 22.9787 139.282 23.384C138.621 23.768 138.066 24.3333 137.618 25.08C137.191 25.8267 136.978 26.7013 136.978 27.704V35H133.522V20.312Z" fill="#023E8A"/>
<path d="M53 12V42" stroke="#023E8A" stroke-width="3"/>
</svg>
